<mxfile host="app.diagrams.net" modified="2024-02-17T07:36:07.868Z" agent="Mozilla/5.0 (Macintosh; Intel Mac OS X 10_15_7) AppleWebKit/537.36 (KHTML, like Gecko) Chrome/120.0.0.0 Safari/537.36" version="23.1.5" etag="i8FMO4VwpGIsZf4co0xQ" type="github">
  <diagram name="Page-1" id="8O5zFwJWiDdlBcu54GmH">
    <mxGraphModel>
      <root>
        <mxCell id="0" />
        <mxCell id="1" parent="0" />
      </root>
    </mxGraphModel>
  </diagram>
</mxfile>
